<svg version="1.1" xmlns="http://www.w3.org/2000/svg" xmlns:xlink="http://www.w3.org/1999/xlink" stroke-linecap="round" stroke-linejoin="round" stroke-width="0" fill-rule="evenodd" clip-rule="evenodd" id="dIlPjnscdicvziI9B67d_top" viewBox="3137.5 -112595 266700 76200" width="266.7mm" height="76.2mm" class="w-100 h-100"><defs><style>.dIlPjnscdicvziI9B67d_fr4 {color: #666666;}
.dIlPjnscdicvziI9B67d_cu {color: #cccccc;}
.dIlPjnscdicvziI9B67d_cf {color: #cc9933;}
.dIlPjnscdicvziI9B67d_sm {color: #01136f; opacity: 0.75;}
.dIlPjnscdicvziI9B67d_ss {color: #ffffff;}
.dIlPjnscdicvziI9B67d_sp {color: #999999;}
.dIlPjnscdicvziI9B67d_out {color: #000000;}</style><circle cx="0" cy="0" r="2100" id="dwfPM21yxfln9QYl_Er1_pad-10"/><circle cx="0" cy="0" r="2300" id="pzGvAyMiR1Z5dBhsunAH_pad-10"/><circle cx="0" cy="0" r="45.3" id="unC7b9_dKAAs0Eg_kjwj_pad-1"/><g id="dIlPjnscdicvziI9B67d_top_copper"><use xlink:href="#dwfPM21yxfln9QYl_Er1_pad-10" x="265868.75" y="-108626.25"/><use xlink:href="#dwfPM21yxfln9QYl_Er1_pad-10" x="136487.5" y="-108626.25"/><use xlink:href="#dwfPM21yxfln9QYl_Er1_pad-10" x="7106.25" y="-108626.25"/><use xlink:href="#dwfPM21yxfln9QYl_Er1_pad-10" x="265868.75" y="-40363.75"/><use xlink:href="#dwfPM21yxfln9QYl_Er1_pad-10" x="184112.5" y="-55572"/><use xlink:href="#dwfPM21yxfln9QYl_Er1_pad-10" x="88862.5" y="-55445"/><use xlink:href="#dwfPM21yxfln9QYl_Er1_pad-10" x="7106.25" y="-40363.75"/></g><g id="dIlPjnscdicvziI9B67d_top_silkscreen"><path d="M 265106.845 -109578.63 265106.845 -108578.63 M 265106.845 -109054.821 265678.273 -109054.821 M 265678.273 -109578.63 265678.273 -108578.63 M 266059.226 -108578.63 266725.892 -108578.63 266297.321 -109578.63 M 135725.595 -109578.63 135725.595 -108578.63 M 135725.595 -109054.821 136297.023 -109054.821 M 136297.023 -109578.63 136297.023 -108578.63 M 137201.785 -108578.63 137011.309 -108578.63 136916.071 -108626.25 136868.452 -108673.869 136773.214 -108816.726 136725.595 -109007.202 136725.595 -109388.154 136773.214 -109483.392 136820.833 -109531.011 136916.071 -109578.63 137106.547 -109578.63 137201.785 -109531.011 137249.404 -109483.392 137297.023 -109388.154 137297.023 -109150.059 137249.404 -109054.821 137201.785 -109007.202 137106.547 -108959.583 136916.071 -108959.583 136820.833 -109007.202 136773.214 -109054.821 136725.595 -109150.059 M 6344.345 -109578.63 6344.345 -108578.63 M 6344.345 -109054.821 6915.773 -109054.821 M 6915.773 -109578.63 6915.773 -108578.63 M 7868.154 -108578.63 7391.964 -108578.63 7344.345 -109054.821 7391.964 -109007.202 7487.202 -108959.583 7725.297 -108959.583 7820.535 -109007.202 7868.154 -109054.821 7915.773 -109150.059 7915.773 -109388.154 7868.154 -109483.392 7820.535 -109531.011 7725.297 -109578.63 7487.202 -109578.63 7391.964 -109531.011 7344.345 -109483.392 M 265106.845 -41316.13 265106.845 -40316.13 M 265106.845 -40792.321 265678.273 -40792.321 M 265678.273 -41316.13 265678.273 -40316.13 M 266583.035 -40649.464 266583.035 -41316.13 M 266344.94 -40268.511 266106.845 -40982.797 266725.892 -40982.797 M 183350.595 -56524.38 183350.595 -55524.38 M 183350.595 -56000.571 183922.023 -56000.571 M 183922.023 -56524.38 183922.023 -55524.38 M 184302.976 -55524.38 184922.023 -55524.38 184588.69 -55905.333 184731.547 -55905.333 184826.785 -55952.952 184874.404 -56000.571 184922.023 -56095.809 184922.023 -56333.904 184874.404 -56429.142 184826.785 -56476.761 184731.547 -56524.38 184445.833 -56524.38 184350.595 -56476.761 184302.976 -56429.142 M 88100.595 -56397.38 88100.595 -55397.38 M 88100.595 -55873.571 88672.023 -55873.571 M 88672.023 -56397.38 88672.023 -55397.38 M 89100.595 -55492.619 89148.214 -55445 89243.452 -55397.38 89481.547 -55397.38 89576.785 -55445 89624.404 -55492.619 89672.023 -55587.857 89672.023 -55683.095 89624.404 -55825.952 89052.976 -56397.38 89672.023 -56397.38 M 6344.345 -41316.13 6344.345 -40316.13 M 6344.345 -40792.321 6915.773 -40792.321 M 6915.773 -41316.13 6915.773 -40316.13 M 7915.773 -41316.13 7344.345 -41316.13 M 7630.059 -41316.13 7630.059 -40316.13 7534.821 -40458.988 7439.583 -40554.226 7344.345 -40601.845" fill="none" stroke-width="150"/></g><g id="dIlPjnscdicvziI9B67d_top_soldermask"><use xlink:href="#pzGvAyMiR1Z5dBhsunAH_pad-10" x="265868.75" y="-108626.25"/><use xlink:href="#pzGvAyMiR1Z5dBhsunAH_pad-10" x="136487.5" y="-108626.25"/><use xlink:href="#pzGvAyMiR1Z5dBhsunAH_pad-10" x="7106.25" y="-108626.25"/><use xlink:href="#pzGvAyMiR1Z5dBhsunAH_pad-10" x="265868.75" y="-40363.75"/><use xlink:href="#pzGvAyMiR1Z5dBhsunAH_pad-10" x="184112.5" y="-55572"/><use xlink:href="#pzGvAyMiR1Z5dBhsunAH_pad-10" x="88862.5" y="-55445"/><use xlink:href="#pzGvAyMiR1Z5dBhsunAH_pad-10" x="7106.25" y="-40363.75"/></g><g id="dIlPjnscdicvziI9B67d_top_drill1" transform="scale(25.4,25.4)"><use xlink:href="#unC7b9_dKAAs0Eg_kjwj_pad-1" x="10467.3" y="-4276.6"/><use xlink:href="#unC7b9_dKAAs0Eg_kjwj_pad-1" x="5373.5" y="-4276.6"/><use xlink:href="#unC7b9_dKAAs0Eg_kjwj_pad-1" x="279.8" y="-4276.6"/><use xlink:href="#unC7b9_dKAAs0Eg_kjwj_pad-1" x="10467.3" y="-1589.1"/><use xlink:href="#unC7b9_dKAAs0Eg_kjwj_pad-1" x="7248.5" y="-2187.9"/><use xlink:href="#unC7b9_dKAAs0Eg_kjwj_pad-1" x="3498.5" y="-2182.9"/><use xlink:href="#unC7b9_dKAAs0Eg_kjwj_pad-1" x="279.8" y="-1589.1"/></g><clipPath id="dIlPjnscdicvziI9B67d_top_outline"><path d="M 147600 -36395 268250 -36395 A 1587.5 1587.5 0 0 0 269837.5 -37982.5 L 269837.5 -111007.5 A 1587.5 1587.5 0 0 0 268250 -112595 L 4725 -112595 A 1587.5 1587.5 0 0 0 3137.5 -111007.5 L 3137.5 -37982.5 A 1587.5 1587.5 0 0 0 4725 -36395 L 125375 -36395 A 1587.5 1587.5 0 0 0 126962.5 -37982.5 L 126962.5 -91957.5 A 1587.5 1587.5 0 0 1 128550 -93545 L 144425 -93545 A 1587.5 1587.5 0 0 1 146012.5 -91957.5 L 146012.5 -37982.5 A 1587.5 1587.5 0 0 0 147600 -36395 M 257787.5 -96070 243787.5 -96070 243787.5 -110070 257787.5 -110070 257787.5 -96070 M 238737.5 -96070 224737.5 -96070 224737.5 -110070 238737.5 -110070 238737.5 -96070 M 219687.5 -96070 205687.5 -96070 205687.5 -110070 219687.5 -110070 219687.5 -96070 M 200637.5 -96070 186637.5 -96070 186637.5 -110070 200637.5 -110070 200637.5 -96070 M 181587.5 -96070 167587.5 -96070 167587.5 -110070 181587.5 -110070 181587.5 -96070 M 157775 -96070 143775 -96070 143775 -110070 157775 -110070 157775 -96070 M 129200 -96070 115200 -96070 115200 -110070 129200 -110070 129200 -96070 M 105387.5 -96070 91387.5 -96070 91387.5 -110070 105387.5 -110070 105387.5 -96070 M 86337.5 -96070 72337.5 -96070 72337.5 -110070 86337.5 -110070 86337.5 -96070 M 67287.5 -96070 53287.5 -96070 53287.5 -110070 67287.5 -110070 67287.5 -96070 M 48237.5 -96070 34237.5 -96070 34237.5 -110070 48237.5 -110070 48237.5 -96070 M 29187.5 -96070 15187.5 -96070 15187.5 -110070 29187.5 -110070 29187.5 -96070 M 262550 -77020 248550 -77020 248550 -91020 262550 -91020 262550 -77020 M 238737.5 -77020 224737.5 -77020 224737.5 -91020 238737.5 -91020 238737.5 -77020 M 219687.5 -77020 205687.5 -77020 205687.5 -91020 219687.5 -91020 219687.5 -77020 M 200637.5 -77020 186637.5 -77020 186637.5 -91020 200637.5 -91020 200637.5 -77020 M 181587.5 -77020 167587.5 -77020 167587.5 -91020 181587.5 -91020 181587.5 -77020 M 162537.5 -77020 148537.5 -77020 148537.5 -91020 162537.5 -91020 162537.5 -77020 M 124437.5 -77020 110437.5 -77020 110437.5 -91020 124437.5 -91020 124437.5 -77020 M 105387.5 -77020 91387.5 -77020 91387.5 -91020 105387.5 -91020 105387.5 -77020 M 86337.5 -77020 72337.5 -77020 72337.5 -91020 86337.5 -91020 86337.5 -77020 M 67287.5 -77020 53287.5 -77020 53287.5 -91020 67287.5 -91020 67287.5 -77020 M 48237.5 -77020 34237.5 -77020 34237.5 -91020 48237.5 -91020 48237.5 -77020 M 24425 -77020 10425 -77020 10425 -91020 24425 -91020 24425 -77020 M 262550 -57970 248550 -57970 248550 -71970 262550 -71970 262550 -57970 M 238737.5 -57970 224737.5 -57970 224737.5 -71970 238737.5 -71970 238737.5 -57970 M 219687.5 -57970 205687.5 -57970 205687.5 -71970 219687.5 -71970 219687.5 -57970 M 200637.5 -57970 186637.5 -57970 186637.5 -71970 200637.5 -71970 200637.5 -57970 M 181587.5 -57970 167587.5 -57970 167587.5 -71970 181587.5 -71970 181587.5 -57970 M 162537.5 -57970 148537.5 -57970 148537.5 -71970 162537.5 -71970 162537.5 -57970 M 124437.5 -57970 110437.5 -57970 110437.5 -71970 124437.5 -71970 124437.5 -57970 M 105387.5 -57970 91387.5 -57970 91387.5 -71970 105387.5 -71970 105387.5 -57970 M 86337.5 -57970 72337.5 -57970 72337.5 -71970 86337.5 -71970 86337.5 -57970 M 67287.5 -57970 53287.5 -57970 53287.5 -71970 67287.5 -71970 67287.5 -57970 M 48237.5 -57970 34237.5 -57970 34237.5 -71970 48237.5 -71970 48237.5 -57970 M 24425 -57970 10425 -57970 10425 -71970 24425 -71970 24425 -57970 M 262550 -38920 248550 -38920 248550 -52920 262550 -52920 262550 -38920 M 238737.5 -38920 224737.5 -38920 224737.5 -52920 238737.5 -52920 238737.5 -38920 M 219687.5 -38920 205687.5 -38920 205687.5 -52920 219687.5 -52920 219687.5 -38920 M 200637.5 -38920 186637.5 -38920 186637.5 -52920 200637.5 -52920 200637.5 -38920 M 181587.5 -38920 167587.5 -38920 167587.5 -52920 181587.5 -52920 181587.5 -38920 M 162537.5 -38920 148537.5 -38920 148537.5 -52920 162537.5 -52920 162537.5 -38920 M 124437.5 -38920 110437.5 -38920 110437.5 -52920 124437.5 -52920 124437.5 -38920 M 105387.5 -38920 91387.5 -38920 91387.5 -52920 105387.5 -52920 105387.5 -38920 M 86337.5 -38920 72337.5 -38920 72337.5 -52920 86337.5 -52920 86337.5 -38920 M 67287.5 -38920 53287.5 -38920 53287.5 -52920 67287.5 -52920 67287.5 -38920 M 48237.5 -38920 34237.5 -38920 34237.5 -52920 48237.5 -52920 48237.5 -38920 M 24425 -38920 10425 -38920 10425 -52920 24425 -52920 24425 -38920" fill="none" stroke-width="200"/></clipPath><mask id="dIlPjnscdicvziI9B67d_top_mech-mask"><g fill="#000" stroke="#000"><rect x="3137.5" y="-112595" width="266700" height="76200" fill="#fff"/><use xlink:href="#dIlPjnscdicvziI9B67d_top_drill1"/></g></mask><mask id="dIlPjnscdicvziI9B67d_top_cf-mask"><g fill="#fff" stroke="#fff"><use xlink:href="#dIlPjnscdicvziI9B67d_top_soldermask"/></g></mask><mask id="dIlPjnscdicvziI9B67d_top_sm-mask"><g fill="#000" stroke="#000"><rect x="3137.5" y="-112595" width="266700" height="76200" fill="#fff"/><use xlink:href="#dIlPjnscdicvziI9B67d_top_soldermask"/></g></mask></defs><g transform="translate(0,-148990) scale(1,-1)"><g mask="url(#dIlPjnscdicvziI9B67d_top_mech-mask)" clip-path="url(#dIlPjnscdicvziI9B67d_top_outline)"><rect x="3137.5" y="-112595" width="266700" height="76200" fill="currentColor" class="dIlPjnscdicvziI9B67d_fr4"/><use xlink:href="#dIlPjnscdicvziI9B67d_top_copper" fill="currentColor" stroke="currentColor" class="dIlPjnscdicvziI9B67d_cu"/><use xlink:href="#dIlPjnscdicvziI9B67d_top_copper" fill="currentColor" stroke="currentColor" class="dIlPjnscdicvziI9B67d_cf" mask="url(#dIlPjnscdicvziI9B67d_top_cf-mask)"/><g mask="url(#dIlPjnscdicvziI9B67d_top_sm-mask)"><rect x="3137.5" y="-112595" width="266700" height="76200" fill="currentColor" class="dIlPjnscdicvziI9B67d_sm"/><use xlink:href="#dIlPjnscdicvziI9B67d_top_silkscreen" fill="currentColor" stroke="currentColor" class="dIlPjnscdicvziI9B67d_ss"/></g></g></g></svg>